<?xml version="1.0" standalone="no"?>
<!DOCTYPE svg PUBLIC "-//W3C//DTD SVG 20010904//EN"
 "http://www.w3.org/TR/2001/REC-SVG-20010904/DTD/svg10.dtd">
<svg version="1.0" xmlns="http://www.w3.org/2000/svg"
 width="2311.000000pt" height="2311.000000pt" viewBox="0 0 2311.000000 2311.000000"
 preserveAspectRatio="xMidYMid meet">
<metadata>
Created by potrace 1.14, written by Peter Selinger 2001-2017
</metadata>
<g transform="translate(0.000000,2311.000000) scale(0.100000,-0.100000)"
fill="#000000" stroke="none">
<path d="M11159 23106 c-2 -2 -71 -6 -154 -10 -82 -4 -175 -8 -205 -11 -30 -2
-93 -7 -140 -10 -47 -3 -103 -8 -125 -10 -22 -2 -69 -7 -105 -10 -36 -3 -101
-10 -145 -15 -44 -5 -107 -12 -140 -16 -33 -3 -69 -8 -80 -10 -10 -2 -35 -6
-55 -8 -19 -3 -54 -8 -76 -11 -23 -3 -57 -8 -75 -10 -19 -3 -45 -7 -58 -10
-13 -2 -49 -7 -80 -11 -31 -3 -58 -8 -61 -9 -3 -2 -24 -6 -46 -9 -22 -4 -51
-9 -64 -11 -14 -3 -50 -9 -80 -15 -85 -14 -111 -19 -160 -30 -25 -5 -56 -12
-70 -14 -59 -11 -94 -19 -255 -56 -309 -71 -452 -109 -770 -204 -310 -92 -741
-244 -1040 -368 -27 -11 -59 -24 -70 -29 -41 -16 -245 -106 -365 -160 -108
-49 -431 -207 -457 -225 -13 -8 -23 -12 -23 -8 0 4 -6 2 -12 -4 -7 -5 -58 -34
-113 -63 -216 -115 -443 -243 -555 -314 -19 -12 -102 -64 -185 -116 -263 -164
-728 -487 -879 -610 -6 -5 -58 -46 -116 -91 -114 -90 -136 -108 -154 -123 -6
-6 -49 -41 -96 -79 -47 -38 -89 -74 -95 -80 -5 -6 -41 -38 -80 -71 -38 -33
-75 -64 -81 -70 -6 -5 -48 -44 -94 -85 -280 -251 -587 -561 -895 -904 -5 -6
-39 -45 -74 -86 -36 -41 -70 -79 -76 -85 -9 -8 -112 -135 -336 -415 -24 -30
-128 -168 -181 -241 -87 -118 -93 -127 -176 -246 -53 -77 -175 -260 -264 -398
-25 -38 -91 -146 -147 -240 -55 -93 -105 -175 -111 -182 -5 -7 -10 -15 -10
-18 0 -3 -26 -52 -58 -108 -137 -239 -392 -744 -449 -892 -9 -22 -19 -44 -23
-50 -12 -16 -112 -256 -194 -465 -42 -107 -86 -217 -96 -244 -11 -27 -20 -53
-20 -58 0 -6 -6 -24 -14 -41 -54 -119 -236 -719 -322 -1057 -66 -261 -160
-705 -194 -920 -6 -36 -13 -76 -15 -90 -12 -74 -25 -161 -30 -205 -3 -27 -8
-59 -10 -70 -2 -11 -7 -42 -10 -70 -3 -27 -8 -63 -10 -80 -3 -16 -7 -57 -10
-90 -3 -33 -8 -73 -10 -90 -2 -16 -7 -64 -10 -105 -4 -41 -8 -86 -10 -99 -2
-13 -7 -71 -11 -130 -3 -58 -8 -117 -9 -131 -27 -214 -26 -1140 0 -1515 2 -27
7 -95 10 -150 4 -55 8 -107 10 -115 2 -8 6 -51 9 -95 4 -44 9 -93 11 -110 10
-78 15 -124 20 -175 3 -30 8 -66 10 -80 4 -25 34 -236 40 -275 1 -11 6 -42 10
-70 3 -27 8 -57 10 -65 3 -8 7 -32 11 -54 6 -39 9 -59 19 -106 5 -28 13 -69
21 -119 3 -18 8 -43 10 -55 3 -11 7 -32 10 -46 2 -14 7 -38 11 -55 4 -16 8
-36 9 -44 1 -7 8 -36 14 -65 128 -572 235 -940 443 -1531 64 -182 246 -627
334 -814 204 -439 345 -707 603 -1150 77 -131 257 -414 364 -569 111 -163 328
-463 391 -540 7 -9 58 -73 112 -142 91 -116 123 -155 148 -184 6 -6 32 -38 60
-71 27 -33 52 -62 55 -65 3 -3 18 -21 34 -40 159 -194 591 -645 843 -880 185
-173 404 -366 553 -486 19 -16 37 -31 40 -34 27 -29 572 -445 621 -475 10 -5
79 -53 156 -106 176 -122 385 -256 623 -399 74 -45 142 -86 150 -91 8 -5 71
-40 140 -77 69 -38 150 -83 182 -100 73 -41 411 -210 508 -255 274 -126 262
-121 485 -214 105 -44 246 -101 315 -127 69 -26 141 -54 160 -61 19 -8 82 -30
140 -50 58 -20 123 -43 145 -51 56 -20 456 -145 480 -150 11 -2 52 -13 90 -24
39 -12 79 -23 89 -25 10 -3 33 -9 51 -15 18 -6 41 -12 51 -15 10 -2 76 -18
146 -35 70 -17 135 -33 145 -35 10 -2 50 -11 88 -20 39 -9 79 -18 90 -20 11
-3 54 -12 95 -20 41 -8 85 -17 98 -20 42 -9 57 -12 92 -19 19 -3 46 -8 60 -11
128 -25 488 -82 640 -101 30 -3 62 -8 70 -9 9 -2 45 -6 81 -9 36 -4 76 -8 90
-11 13 -2 60 -6 104 -10 44 -3 94 -8 110 -10 48 -7 175 -16 455 -31 279 -16
1051 -10 1325 11 22 2 85 6 140 9 55 4 111 9 125 11 14 2 59 6 100 10 41 4 86
8 100 10 14 2 50 6 80 10 30 3 71 8 90 10 50 6 201 25 230 30 14 2 75 11 135
20 143 21 588 104 710 131 11 3 31 7 45 10 14 3 33 7 42 10 10 3 28 7 41 9 48
9 429 108 562 146 77 23 147 42 155 44 18 4 224 70 358 114 93 31 420 149 477
172 17 7 35 13 40 15 23 5 429 176 540 227 66 30 143 64 170 77 266 121 738
373 1055 564 102 62 196 119 209 126 14 8 30 18 35 22 6 5 110 74 231 154 121
81 231 155 245 166 14 10 115 85 225 167 192 142 461 355 595 471 285 247 414
366 669 621 167 166 338 345 408 425 33 39 137 156 158 178 55 60 344 412 378
461 12 16 24 32 27 35 4 3 26 32 51 65 24 33 47 62 52 63 4 2 7 8 7 13 0 5 10
20 23 35 12 14 70 94 129 177 59 84 111 157 116 162 18 22 261 393 287 440 16
28 32 52 35 55 11 9 248 417 314 541 187 348 355 697 490 1019 32 74 61 144
66 155 34 74 185 479 238 640 77 233 170 533 188 604 2 9 22 86 45 171 23 85
48 184 56 220 8 36 16 72 18 80 2 8 12 53 23 100 20 85 67 308 77 365 3 17 7
41 10 55 22 123 51 291 60 360 3 25 8 52 10 60 2 8 7 38 10 66 3 28 7 59 9 70
2 10 7 48 12 84 4 36 8 67 9 70 1 3 5 43 9 90 5 47 10 92 11 100 2 8 6 49 10
90 3 41 8 86 10 100 2 14 7 72 10 130 4 58 8 117 10 132 26 207 26 1245 0
1528 -1 19 -6 76 -10 125 -10 147 -37 415 -50 505 -3 19 -7 58 -10 85 -8 68
-15 117 -19 141 -2 12 -7 45 -11 75 -3 30 -8 61 -10 69 -4 13 -13 71 -20 125
-3 19 -17 103 -30 170 -3 17 -12 68 -21 114 -8 46 -16 87 -18 90 -3 4 -7 27
-11 51 -4 25 -20 104 -37 175 -16 72 -32 141 -34 155 -9 49 -108 424 -149 565
-155 531 -358 1085 -556 1513 -16 35 -29 65 -29 66 0 2 -21 48 -47 102 -25 55
-47 101 -48 104 -4 17 -270 534 -285 555 -4 6 -23 39 -42 75 -50 92 -168 295
-251 430 -200 325 -553 834 -727 1046 -14 17 -34 43 -45 58 -11 15 -27 36 -37
47 -9 11 -31 39 -50 61 -53 66 -132 163 -146 178 -28 33 -60 70 -112 130 -70
81 -128 147 -160 181 -14 15 -70 76 -125 135 -223 241 -590 597 -810 785 -21
19 -46 41 -55 49 -39 36 -93 82 -205 174 -66 54 -129 106 -140 115 -11 9 -74
58 -140 109 -66 51 -127 99 -135 105 -82 66 -433 313 -580 409 -253 164 -292
189 -480 300 -248 147 -473 270 -717 392 -179 89 -239 118 -383 183 -30 14
-82 38 -115 53 -140 66 -542 226 -775 310 -378 136 -704 234 -1140 345 -153
38 -603 134 -705 149 -22 4 -47 8 -55 11 -8 2 -31 6 -50 9 -19 3 -46 8 -60 10
-30 6 -440 65 -490 71 -114 13 -167 19 -280 30 -30 3 -80 7 -110 10 -61 6
-128 11 -275 21 -55 3 -122 8 -150 10 -62 5 -981 14 -986 10z"/>
</g>
</svg>
